<svg width="1600" height="1000" viewBox="0 0 1600 1000" fill="none" xmlns="http://www.w3.org/2000/svg">
  <defs>
    <linearGradient id="bg" x1="0" y1="0" x2="1600" y2="1000" gradientUnits="userSpaceOnUse">
      <stop stop-color="#F4FAFF"/>
      <stop offset="1" stop-color="#FFF6EF"/>
    </linearGradient>
    <linearGradient id="leftWall" x1="320" y1="190" x2="320" y2="690" gradientUnits="userSpaceOnUse">
      <stop stop-color="#F8F4ED"/>
      <stop offset="1" stop-color="#EDE2D1"/>
    </linearGradient>
    <linearGradient id="rightWall" x1="1280" y1="190" x2="1280" y2="690" gradientUnits="userSpaceOnUse">
      <stop stop-color="#FCF7F0"/>
      <stop offset="1" stop-color="#F0E4D4"/>
    </linearGradient>
    <linearGradient id="floor" x1="800" y1="360" x2="800" y2="910" gradientUnits="userSpaceOnUse">
      <stop stop-color="#E4C197"/>
      <stop offset="1" stop-color="#C58D59"/>
    </linearGradient>
    <linearGradient id="windowSky" x1="1160" y1="246" x2="1340" y2="424" gradientUnits="userSpaceOnUse">
      <stop stop-color="#F7FDFF"/>
      <stop offset="1" stop-color="#D9F0D6"/>
    </linearGradient>
    <filter id="shadow" x="0" y="0" width="1600" height="1000" filterUnits="userSpaceOnUse" color-interpolation-filters="sRGB">
      <feFlood flood-opacity="0" result="BackgroundImageFix"/>
      <feColorMatrix in="SourceAlpha" type="matrix" values="0 0 0 0 0 0 0 0 0 0 0 0 0 0 0 0 0 0 127 0" result="hardAlpha"/>
      <feOffset dy="10"/>
      <feGaussianBlur stdDeviation="16"/>
      <feColorMatrix type="matrix" values="0 0 0 0 0.18 0 0 0 0 0.16 0 0 0 0 0.13 0 0 0 0.18 0"/>
      <feBlend mode="normal" in2="BackgroundImageFix" result="effect1_dropShadow_0_1"/>
      <feBlend mode="normal" in="SourceGraphic" in2="effect1_dropShadow_0_1" result="shape"/>
    </filter>
  </defs>

  <rect width="1600" height="1000" fill="url(#bg)"/>
  <circle cx="1320" cy="170" r="120" fill="#FFEFD5" opacity="0.8"/>
  <circle cx="220" cy="820" r="140" fill="#DDEFFF" opacity="0.62"/>

  <rect x="86" y="54" width="1428" height="64" rx="24" fill="#FFFFFF" fill-opacity="0.6"/>

  <g filter="url(#shadow)">
    <polygon points="320,190 800,340 800,760 320,610" fill="url(#leftWall)"/>
    <polygon points="1280,190 800,340 800,760 1280,610" fill="url(#rightWall)"/>
    <polygon points="800,340 1280,490 800,790 320,490" fill="url(#floor)"/>
  </g>

  <g opacity="0.18">
    <line x1="470" y1="454" x2="940" y2="600" stroke="#9C724B" stroke-width="3"/>
    <line x1="566" y1="424" x2="1036" y2="570" stroke="#9C724B" stroke-width="3"/>
    <line x1="662" y1="394" x2="1132" y2="540" stroke="#9C724B" stroke-width="3"/>
    <line x1="758" y1="364" x2="1228" y2="510" stroke="#9C724B" stroke-width="3"/>
  </g>

  <g filter="url(#shadow)">
    <polygon points="1076,220 1188,254 1188,404 1076,370" fill="#FFFDF9"/>
    <polygon points="1188,254 1336,218 1336,368 1188,404" fill="url(#windowSky)"/>
    <polygon points="1076,220 1188,254 1336,218 1226,186" fill="#F5EFE5"/>
    <circle cx="1246" cy="334" r="52" fill="#A6D0A3"/>
    <circle cx="1284" cy="310" r="72" fill="#B8DDAF"/>
    <rect x="1242" y="350" width="22" height="70" rx="11" fill="#8D6540"/>
  </g>

  <g filter="url(#shadow)">
    <polygon points="464,246 562,276 562,436 464,406" fill="#FFFDF9"/>
    <polygon points="562,276 704,234 704,394 562,436" fill="#F4E7CC"/>
    <polygon points="464,246 562,276 704,234 612,208" fill="#F9F3E9"/>
    <line x1="582" y1="286" x2="582" y2="430" stroke="#D8C8B4" stroke-width="3"/>
    <line x1="628" y1="272" x2="628" y2="416" stroke="#D8C8B4" stroke-width="3"/>
    <line x1="674" y1="258" x2="674" y2="402" stroke="#D8C8B4" stroke-width="3"/>
    <line x1="528" y1="328" x2="678" y2="282" stroke="#D8C8B4" stroke-width="3"/>
    <line x1="528" y1="372" x2="678" y2="326" stroke="#D8C8B4" stroke-width="3"/>
    <circle cx="614" cy="342" r="16" fill="#E4A16D"/>
  </g>

  <g filter="url(#shadow)">
    <polygon points="964,268 1060,298 1060,430 964,400" fill="#F7F3EC"/>
    <polygon points="1060,298 1166,266 1166,398 1060,430" fill="#E8DABF"/>
    <polygon points="964,268 1060,298 1166,266 1072,238" fill="#FBF7F0"/>
    <rect x="1026" y="300" width="20" height="80" transform="rotate(-17 1026 300)" fill="#8FAF7A"/>
    <rect x="1054" y="292" width="20" height="98" transform="rotate(-17 1054 292)" fill="#E59A88"/>
    <rect x="1088" y="282" width="20" height="112" transform="rotate(-17 1088 282)" fill="#6F91B5"/>
  </g>

  <g filter="url(#shadow)">
    <polygon points="398,492 548,540 548,682 398,634" fill="#FFFDF9"/>
    <polygon points="548,540 808,458 808,600 548,682" fill="#FAF7F0"/>
    <polygon points="398,492 548,540 808,458 662,414" fill="#F3ECE2"/>
    <polygon points="470,502 576,536 576,622 470,588" fill="#E5B840"/>
    <polygon points="576,536 770,474 770,560 576,622" fill="#F2C651"/>
    <polygon points="510,458 588,482 682,452 606,430" fill="#FFFDFB"/>
  </g>

  <g filter="url(#shadow)">
    <polygon points="816,496 930,532 930,670 816,634" fill="#F4F0E7"/>
    <polygon points="930,532 1076,486 1076,624 930,670" fill="#ECE3D5"/>
    <polygon points="816,496 930,532 1076,486 964,452" fill="#FBF7F0"/>
    <polygon points="862,522 914,538 914,588 862,572" fill="#F9F9F6"/>
    <polygon points="918,540 984,520 984,570 918,590" fill="#F9F9F6"/>
  </g>

  <g filter="url(#shadow)">
    <polygon points="1040,560 1118,584 1118,728 1040,704" fill="#F5E4CA"/>
    <polygon points="1118,584 1200,558 1200,702 1118,728" fill="#EBCFAE"/>
    <polygon points="1040,560 1118,584 1200,558 1126,536" fill="#F9EEDC"/>
  </g>

  <g filter="url(#shadow)">
    <ellipse cx="842" cy="592" rx="54" ry="24" fill="#C19A75" opacity="0.34"/>
    <circle cx="842" cy="556" r="28" fill="#FFD9A8"/>
    <rect x="826" y="582" width="32" height="52" rx="16" fill="#8EB07A"/>
    <rect x="814" y="608" width="18" height="56" rx="9" fill="#7A5F48"/>
    <rect x="852" y="608" width="18" height="56" rx="9" fill="#7A5F48"/>
  </g>

  <circle cx="610" cy="316" r="24" fill="#FFFFFF" opacity="0.34"/>
  <circle cx="1118" cy="598" r="24" fill="#FFFFFF" opacity="0.24"/>
</svg>
