<svg width="1600" height="1000" viewBox="0 0 1600 1000" fill="none" xmlns="http://www.w3.org/2000/svg">
  <defs>
    <linearGradient id="bg" x1="0" y1="0" x2="1600" y2="1000" gradientUnits="userSpaceOnUse">
      <stop stop-color="#22344A"/>
      <stop offset="1" stop-color="#152231"/>
    </linearGradient>
    <linearGradient id="leftWall" x1="320" y1="190" x2="320" y2="690" gradientUnits="userSpaceOnUse">
      <stop stop-color="#536174"/>
      <stop offset="1" stop-color="#3E4D5F"/>
    </linearGradient>
    <linearGradient id="rightWall" x1="1280" y1="190" x2="1280" y2="690" gradientUnits="userSpaceOnUse">
      <stop stop-color="#5A6879"/>
      <stop offset="1" stop-color="#445263"/>
    </linearGradient>
    <linearGradient id="floor" x1="800" y1="340" x2="800" y2="790" gradientUnits="userSpaceOnUse">
      <stop stop-color="#9D7B5E"/>
      <stop offset="1" stop-color="#76563E"/>
    </linearGradient>
    <radialGradient id="lampGlow" cx="0" cy="0" r="1" gradientUnits="userSpaceOnUse" gradientTransform="translate(1040 510) rotate(90) scale(240 300)">
      <stop stop-color="#FFDFA5" stop-opacity="0.85"/>
      <stop offset="1" stop-color="#FFDFA5" stop-opacity="0"/>
    </radialGradient>
    <filter id="shadow" x="0" y="0" width="1600" height="1000" filterUnits="userSpaceOnUse" color-interpolation-filters="sRGB">
      <feFlood flood-opacity="0" result="BackgroundImageFix"/>
      <feColorMatrix in="SourceAlpha" type="matrix" values="0 0 0 0 0 0 0 0 0 0 0 0 0 0 0 0 0 0 127 0" result="hardAlpha"/>
      <feOffset dy="10"/>
      <feGaussianBlur stdDeviation="16"/>
      <feColorMatrix type="matrix" values="0 0 0 0 0.05 0 0 0 0 0.06 0 0 0 0 0.08 0 0 0 0.42 0"/>
      <feBlend mode="normal" in2="BackgroundImageFix" result="effect1_dropShadow_0_1"/>
      <feBlend mode="normal" in="SourceGraphic" in2="effect1_dropShadow_0_1" result="shape"/>
    </filter>
  </defs>

  <rect width="1600" height="1000" fill="url(#bg)"/>
  <circle cx="1260" cy="146" r="84" fill="#E7EFFF" opacity="0.22"/>

  <g filter="url(#shadow)">
    <polygon points="320,190 800,340 800,760 320,610" fill="url(#leftWall)"/>
    <polygon points="1280,190 800,340 800,760 1280,610" fill="url(#rightWall)"/>
    <polygon points="800,340 1280,490 800,790 320,490" fill="url(#floor)"/>
  </g>

  <ellipse cx="1038" cy="530" rx="280" ry="220" fill="url(#lampGlow)"/>

  <g opacity="0.12">
    <line x1="470" y1="454" x2="940" y2="600" stroke="#E8C79A" stroke-width="3"/>
    <line x1="566" y1="424" x2="1036" y2="570" stroke="#E8C79A" stroke-width="3"/>
    <line x1="662" y1="394" x2="1132" y2="540" stroke="#E8C79A" stroke-width="3"/>
  </g>

  <polygon points="398,492 548,540 548,682 398,634" fill="#EEE8E0"/>
  <polygon points="548,540 808,458 808,600 548,682" fill="#E9DFD4"/>
  <polygon points="398,492 548,540 808,458 662,414" fill="#D8D0C6"/>
  <polygon points="470,502 576,536 576,622 470,588" fill="#C59A3B"/>
  <polygon points="576,536 770,474 770,560 576,622" fill="#DBB04A"/>
  <polygon points="510,458 588,482 682,452 606,430" fill="#F8F5F1"/>

  <polygon points="816,496 930,532 930,670 816,634" fill="#D9D4CB"/>
  <polygon points="930,532 1076,486 1076,624 930,670" fill="#CEC4B8"/>
  <polygon points="816,496 930,532 1076,486 964,452" fill="#E8E1D8"/>

  <polygon points="1040,560 1118,584 1118,728 1040,704" fill="#E2C4A1"/>
  <polygon points="1118,584 1200,558 1200,702 1118,728" fill="#CFA882"/>
  <polygon points="1040,560 1118,584 1200,558 1126,536" fill="#EDD7B8"/>

  <ellipse cx="842" cy="592" rx="54" ry="24" fill="#4A3A2C" opacity="0.32"/>
  <circle cx="842" cy="556" r="28" fill="#FFD9A8"/>
  <rect x="826" y="582" width="32" height="52" rx="16" fill="#8EB07A"/>
  <rect x="814" y="608" width="18" height="56" rx="9" fill="#5F4A39"/>
  <rect x="852" y="608" width="18" height="56" rx="9" fill="#5F4A39"/>

  <polygon points="464,246 562,276 562,436 464,406" fill="#ECE5DA"/>
  <polygon points="562,276 704,234 704,394 562,436" fill="#D8C7A8"/>
  <polygon points="464,246 562,276 704,234 612,208" fill="#EDE4D6"/>
  <circle cx="614" cy="342" r="14" fill="#F2C17B"/>

  <polygon points="1080,220 1188,254 1188,404 1080,370" fill="#E6E0D6"/>
  <polygon points="1188,254 1336,218 1336,368 1188,404" fill="#32455C"/>
  <polygon points="1080,220 1188,254 1336,218 1228,186" fill="#E8E1D7"/>
  <circle cx="1238" cy="300" r="24" fill="#EEF4FF"/>
  <circle cx="1306" cy="270" r="3" fill="#FFFFFF"/>
  <circle cx="1278" cy="316" r="3" fill="#FFFFFF"/>
  <circle cx="1328" cy="334" r="3" fill="#FFFFFF"/>

  <circle cx="1130" cy="590" r="8" fill="#FFE5A8" opacity="0.9"/>
  <circle cx="1110" cy="558" r="6" fill="#FFE5A8" opacity="0.7"/>
  <circle cx="1060" cy="520" r="5" fill="#FFE5A8" opacity="0.55"/>
</svg>
